<svg id="دليفرى" xmlns="http://www.w3.org/2000/svg" width="20" height="20" viewBox="0 0 20 20">
  <g id="Rectangle_19147" data-name="Rectangle 19147" fill="#8c8c8c" stroke="#707070" stroke-width="1" opacity="0">
    <rect width="20" height="20" stroke="none"/>
    <rect x="0.5" y="0.5" width="19" height="19" fill="none"/>
  </g>
  <g id="Rectangle_19148" data-name="Rectangle 19148" transform="translate(2 2)" fill="#8c8c8c" stroke="#707070" stroke-width="1" opacity="0">
    <rect width="16" height="16" stroke="none"/>
    <rect x="0.5" y="0.5" width="15" height="15" fill="none"/>
  </g>
  <path id="Subtraction_1" data-name="Subtraction 1" d="M-3040.106-513.473h0a3.154,3.154,0,0,1-3-2.33,3.153,3.153,0,0,1,1.435-3.519l-.347-1.048a2.61,2.61,0,0,0-.5.5l-2.352,3.135a1.885,1.885,0,0,1-.923.66,3.03,3.03,0,0,1-3.067,2.571,3.068,3.068,0,0,1-3.157-3.105,3.168,3.168,0,0,1,1.248-2.493,3.169,3.169,0,0,1,1.9-.638,3.148,3.148,0,0,1,.838.114l.275-.368a.628.628,0,0,0,.056-.654.629.629,0,0,0-.557-.348l-4.714.016L-3053-526h4.319v3.749h.015a5.211,5.211,0,0,1,1.734.189.808.808,0,0,1,.4.751,1.208,1.208,0,0,0,.051.315h3.284a3.758,3.758,0,0,1,.768-.61l-.633-1.9h-2.055v-1.255h2.96l.9,2.7.05-.01a10.764,10.764,0,0,1,1.266-.162,1.256,1.256,0,0,1,1.1-.643h.627v2.507h-.627a1.259,1.259,0,0,1-1.075-.608c-.293.021-.617.062-.936.117l.381,1.141a3.26,3.26,0,0,1,.376-.022,3.054,3.054,0,0,1,3.107,3.135A3.054,3.054,0,0,1-3040.106-513.473Zm-1.155-4.617h0a1.891,1.891,0,0,0-.606,2.088,1.894,1.894,0,0,0,1.761,1.275h.017a1.886,1.886,0,0,0,1.881-1.864,1.884,1.884,0,0,0-1.864-1.9l.554,1.663a.626.626,0,0,1-.114.626.627.627,0,0,1-.475.217.634.634,0,0,1-.129-.013.629.629,0,0,1-.47-.431l-.554-1.663Zm-7.623-.4a1.883,1.883,0,0,0-1.88,1.881,1.883,1.883,0,0,0,1.88,1.881,1.884,1.884,0,0,0,1.773-1.254h-1.146a1.248,1.248,0,0,1-1.121-.693,1.25,1.25,0,0,1,.118-1.314l.376-.5Zm2.184-1.247-2.045,2.669h2.625l1.922-2.669Z" transform="translate(3055 530)" fill="#8c8c8c"/>
</svg>
