<svg id="تقييم" xmlns="http://www.w3.org/2000/svg" width="20" height="20" viewBox="0 0 20 20">
  <path id="star_1_" data-name="star (1)" d="M15.9,5.927a2.12,2.12,0,0,0-2.045-1.484H10.938l-.885-2.758a2.152,2.152,0,0,0-4.1,0L5.07,4.443H2.157A2.152,2.152,0,0,0,.89,8.331l2.371,1.734-.9,2.792a2.152,2.152,0,0,0,3.323,2.4L8,13.545l2.322,1.706a2.152,2.152,0,0,0,3.323-2.394l-.9-2.792,2.374-1.734a2.118,2.118,0,0,0,.775-2.4ZM14.334,7.254l-2.763,2.02a.667.667,0,0,0-.241.744l1.05,3.247a.818.818,0,0,1-1.264.91l-2.717-2a.667.667,0,0,0-.789,0l-2.717,2a.818.818,0,0,1-1.267-.91l1.054-3.247a.667.667,0,0,0-.241-.744L1.674,7.254a.818.818,0,0,1,.483-1.478h3.4a.667.667,0,0,0,.635-.463L7.226,2.092a.818.818,0,0,1,1.558,0L9.817,5.314a.667.667,0,0,0,.635.463h3.4a.818.818,0,0,1,.483,1.478Z" transform="translate(1.992 1.81)" fill="#8c8c8c"/>
  <g id="Rectangle_19147" data-name="Rectangle 19147" fill="#8c8c8c" stroke="#707070" stroke-width="1" opacity="0">
    <rect width="20" height="20" stroke="none"/>
    <rect x="0.5" y="0.5" width="19" height="19" fill="none"/>
  </g>
  <g id="Rectangle_19148" data-name="Rectangle 19148" transform="translate(2 2)" fill="#8c8c8c" stroke="#707070" stroke-width="1" opacity="0">
    <rect width="16" height="16" stroke="none"/>
    <rect x="0.5" y="0.5" width="15" height="15" fill="none"/>
  </g>
</svg>
