<svg xmlns="http://www.w3.org/2000/svg" width="20" height="20" viewBox="0 0 20 20">
  <g id="Group_29337" data-name="Group 29337" transform="translate(-113 -690)">
    <g id="Rectangle_19153" data-name="Rectangle 19153" transform="translate(113 690)" fill="#007a7b" stroke="#707070" stroke-width="1" opacity="0">
      <rect width="20" height="20" stroke="none"/>
      <rect x="0.5" y="0.5" width="19" height="19" fill="none"/>
    </g>
    <g id="Rectangle_19154" data-name="Rectangle 19154" transform="translate(115 692)" fill="#007a7b" stroke="#707070" stroke-width="1" opacity="0">
      <rect width="16" height="16" stroke="none"/>
      <rect x="0.5" y="0.5" width="15" height="15" fill="none"/>
    </g>
    <path id="time-forward-sixty" d="M14.666,1.353V3.64A7.931,7.931,0,0,0,5.592.371,8.119,8.119,0,0,0,0,8.339a8.1,8.1,0,0,0,6,7.655v-1.4a6.807,6.807,0,0,1,.345-13.04,6.623,6.623,0,0,1,7.412,3.188H11.333V6.1h3.333A1.344,1.344,0,0,0,16,4.742V1.353Z" transform="translate(115 692.006)" fill="#007a7b"/>
  </g>
</svg>
